inDegrees=no
num_controls=7
num_derivatives=13
num_iterations=142
num_multipliers=7
num_parameters=0
num_slacks=7
num_states=26
objective=0.469798
objective_accelerations=0.062509
objective_balance=0.002069
objective_effort=0.020010
objective_height=0.375614
objective_ligament=0.009595
solver_duration=1909.295908
status=Solve_Succeeded
success=true
DataType=double
version=3
OpenSimVersion=4.5
endheader
time	/jointset/ground_pelvis/pelvis_tilt/value	/jointset/ground_pelvis/pelvis_tx/value	/jointset/ground_pelvis/pelvis_ty/value	/jointset/hip_l/hip_flexion_l/value	/jointset/hip_l/hip_adduction_l/value	/jointset/hip_l/hip_rotation_l/value	/jointset/back/lumbar_extension/value	/jointset/patellofemoral_l/patellar_flexion_l/value	/jointset/knee_l/knee_flexion_l/value	/jointset/knee_l/knee_adduction_l/value	/jointset/knee_l/knee_rotation_l/value	/jointset/ankle_l/ankle_angle_l/value	/jointset/subtalar_l/subtalar_angle_l/value	/jointset/ground_pelvis/pelvis_tilt/speed	/jointset/ground_pelvis/pelvis_tx/speed	/jointset/ground_pelvis/pelvis_ty/speed	/jointset/hip_l/hip_flexion_l/speed	/jointset/hip_l/hip_adduction_l/speed	/jointset/hip_l/hip_rotation_l/speed	/jointset/back/lumbar_extension/speed	/jointset/patellofemoral_l/patellar_flexion_l/speed	/jointset/knee_l/knee_flexion_l/speed	/jointset/knee_l/knee_adduction_l/speed	/jointset/knee_l/knee_rotation_l/speed	/jointset/ankle_l/ankle_angle_l/speed	/jointset/subtalar_l/subtalar_angle_l/speed	/forceset/tau_hip_flexion_l	/forceset/tau_hip_adduction_l	/forceset/tau_hip_rotation_l	/forceset/tau_knee_flexion_l	/forceset/tau_ankle_angle_l	/forceset/tau_subtalar_angle_l	/forceset/tau_lumbar_extension	lambda_cid13_p0	lambda_cid13_p1	lambda_cid13_p2	lambda_cid13_p3	lambda_cid13_p4	lambda_cid13_p5	lambda_cid14_p0	/jointset/ground_pelvis/pelvis_tilt/accel	/jointset/ground_pelvis/pelvis_tx/accel	/jointset/ground_pelvis/pelvis_ty/accel	/jointset/hip_l/hip_flexion_l/accel	/jointset/hip_l/hip_adduction_l/accel	/jointset/hip_l/hip_rotation_l/accel	/jointset/back/lumbar_extension/accel	/jointset/patellofemoral_l/patellar_flexion_l/accel	/jointset/knee_l/knee_flexion_l/accel	/jointset/knee_l/knee_adduction_l/accel	/jointset/knee_l/knee_rotation_l/accel	/jointset/ankle_l/ankle_angle_l/accel	/jointset/subtalar_l/subtalar_angle_l/accel	gamma_cid13_p0	gamma_cid13_p1	gamma_cid13_p2	gamma_cid13_p3	gamma_cid13_p4	gamma_cid13_p5	gamma_cid14_p0
0	0.0500566744120162	0.1068666817359207	0.9039495796685455	0.1266922784136757	-0.3609569473008558	-0.2408373916956026	-0.2144969558742783	0.2051545070141869	0.2051545070141877	-0.1551771804242399	-0.1709960832808387	0.09024313228550125	0.08907687688634588	0	0	0	0	0	0	0	0	0	0	0	0	0	0.115353984780914	-0.05171631077431739	-0.006648292720514287	-0.2127449467347879	0.09405285924095694	-0.0633553850320857	-0.05394337304494225	-1.000627948298503	26.06885130341008	-2.58484652094661	19.72963961708886	-450.6807577130201	-61.67311552577753	-26.47970873023907	-6.101999107112921	-2.530924834674558	-0.8620294451107373	14.37790128854154	0.03630153080891455	2.457761455572487	-3.999868095936419	7.184707288972908	7.184707288972475	1.895290541420023	-0.4097928491358149	-0.4065206203152424	-0.1166013112007771	1.353225712736113e-08	2.027495736857169e-07	-5.117170674569385e-08	1.229101759360308e-08	5.71454857630125e-08	8.328614486152047e-08	3.100842560464821e-08
0.01	0.04976103936527157	0.1067416737531912	0.903907673918255	0.1273935011174443	-0.3609546967193009	-0.240711160187093	-0.2147011281874103	0.2055041405671962	0.2055041405671953	-0.1550843766173851	-0.1710096153591011	0.09022153177054264	0.08907108498897388	-0.05889948511281427	-0.02488345028358029	-0.008359727580685457	0.1396448706734653	0.0004322661095439177	0.02516533321835973	-0.04052159604527708	0.06960686795245345	0.0696068679524519	0.01843341480673597	-0.002662475235957059	-0.004303831875202504	-0.00117173830540224	0.1125295509527103	-0.0598235855644396	-0.006176086555655127	-0.2103455558027285	0.08973100229525038	-0.05474569449429728	-0.05152325275510838	-1.838030657297971	22.30637427432429	-1.790924120463086	19.34986422743159	-450.8142636649682	-69.2166741163344	-26.47937461290967	-5.749794397834639	-2.449330727636663	-0.8197196138421505	13.66783017829306	0.04398539230897926	2.53378823769809	-4.031375371671458	6.800693949325012	6.800693949325038	1.798294597070941	-0.1878971844732145	-0.439866468455476	-0.1194899730881747	8.128925973531712e-09	2.773776421850297e-07	-2.605942889576037e-08	2.245545797509733e-08	-9.179555476797918e-08	5.959264796818672e-08	4.358896213898512e-08
0.02	0.04888323523050518	0.1063713761471386	0.9037828158522989	0.1294731825722566	-0.3609486642283949	-0.2403357015498535	-0.2153011304635646	0.2065402462799157	0.2065402462799161	-0.1548110531331074	-0.1710484566544579	0.09015738253736565	0.08905316973197221	-0.1164338176043872	-0.04905792466463258	-0.01659046313315598	0.2756917502086925	0.0007563818703621953	0.04984542574593461	-0.07916599260447932	0.1372944319426447	0.1372944319426433	0.03610393548429363	-0.005061843417815777	-0.008509743643713871	-0.002424671925933838	0.1097051171245072	-0.06793086035456344	-0.005703880390765288	-0.2079461648706743	0.08540914534954233	-0.0461360039565115	-0.04910313246527239	-2.643284748279737	18.54378298177269	-1.003284171690717	19.05330233493602	-450.297018065282	-76.63040930537332	-26.47824344800128	-5.828968582864667	-2.389129654168953	-0.8362310394677511	13.65830306089392	0.01467146106378682	2.360713317415515	-3.624428198721455	6.800846496520458	6.800846496520369	1.742711715584362	-0.3571714383161452	-0.3869365989770105	-0.1328403742266471	2.725594819702288e-09	3.520057106843424e-07	-9.471510458268981e-10	3.261989835659157e-08	-2.407365952989709e-07	3.589915107485297e-08	5.616949867332203e-08
0.03	0.04743653224586852	0.1057626696524557	0.9035760380986981	0.1328961643301845	-0.3609397622529162	-0.239716865233256	-0.216277847184653	0.2082439139401425	0.2082439139401448	-0.1543645277170672	-0.1711108584476138	0.09005143599249692	0.08902244520389709	-0.1726576616006648	-0.07258339846020659	-0.02476128956176878	0.4082956445097863	0.001021788165051837	0.07382297459446563	-0.1158912518158532	0.203099585888365	0.2030995858883655	0.0530856898013877	-0.007369084647014668	-0.01269473486261869	-0.003726063766442195	0.1058232767379865	-0.06399275077617839	-0.005125336200740478	-0.2044657549852928	0.08297727982210874	-0.04792997900973994	-0.04608473157287569	-3.464406725844289	19.38428523031766	-1.043169302595107	19.08052270040165	-449.5550662086123	-74.12143449195328	-26.47616100674767	-5.481719201608594	-2.319253305429869	-0.8069874898738575	12.97009075594662	0.03208571830720629	2.40145710552849	-3.653659812754052	6.419411426683469	6.419411426683794	1.658650309123528	-0.1600944949276993	-0.4365414977811405	-0.1297187663822585	-7.899554138265041e-11	3.854524176907764e-07	8.549953967043117e-09	3.872453915536182e-08	-3.390568475234935e-07	1.843198868825118e-08	6.412714376005155e-08
